name Walk2.mot
datacolumns 19
datarows 10
range 2.07500000 2.08400000
endheader

                time	   L_ground_force_vx	   L_ground_force_vy	   L_ground_force_vz	   L_ground_force_px	   L_ground_force_py	   L_ground_force_pz	   R_ground_force_vx	   R_ground_force_vy	   R_ground_force_vz	   R_ground_force_px	   R_ground_force_py	   R_ground_force_pz	   L_ground_torque_x	   L_ground_torque_y	   L_ground_torque_z	   R_ground_torque_x	   R_ground_torque_y	   R_ground_torque_z	
          2.07500000	         -0.00000001	         -0.00000002	          0.00000000	          0.00000000	          0.00000000	          0.00000000	         13.74709947	         35.36902513	          4.04488664	          0.34847168	          0.00000000	          0.03536086	          0.00000000	          0.00000000	          0.00000000	          0.00000000	          0.05018036	          0.00000000	
          2.07600000	         -0.00000001	         -0.00000002	          0.00000000	          0.00000000	          0.00000000	          0.00000000	         12.74806121	         32.21515707	          3.78613074	          0.33610630	          0.00000000	          0.03406594	          0.00000000	          0.00000000	          0.00000000	          0.00000000	          0.05242290	          0.00000000	
          2.07700000	         -0.00000001	         -0.00000002	          0.00000000	          0.00000000	          0.00000000	          0.00000000	         11.78619825	         29.20883196	          3.53508923	          0.32357282	          0.00000000	          0.03275690	          0.00000000	          0.00000000	          0.00000000	          0.00000000	          0.05428243	          0.00000000	
          2.07800000	         -0.00000000	         -0.00000001	          0.00000000	          0.00000000	          0.00000000	          0.00000000	         10.86177621	         26.34829148	          3.29204302	          0.31091023	          0.00000000	          0.03143783	          0.00000000	          0.00000000	          0.00000000	          0.00000000	          0.05578161	          0.00000000	
          2.07900000	         -0.00000000	         -0.00000001	          0.00000000	          0.00000000	          0.00000000	          0.00000000	          9.97498418	         23.63161450	          3.05722484	          0.29816164	          0.00000000	          0.03011318	          0.00000000	          0.00000000	          0.00000000	          0.00000000	          0.05694367	          0.00000000	
          2.08000000	         -0.00000000	         -0.00000001	          0.00000000	          0.00000000	          0.00000000	          0.00000000	          9.12591790	         21.05667891	          2.83082008	          0.28537394	          0.00000000	          0.02878768	          0.00000000	          0.00000000	          0.00000000	          0.00000000	          0.05779206	          0.00000000	
          2.08100000	         -0.00000000	         -0.00000001	          0.00000000	          0.00000000	          0.00000000	          0.00000000	          8.31456072	         18.62111427	          2.61296827	          0.27259566	          0.00000000	          0.02746615	          0.00000000	          0.00000000	          0.00000000	          0.00000000	          0.05834998	          0.00000000	
          2.08200000	         -0.00000000	         -0.00000001	          0.00000000	          0.00000000	          0.00000000	          0.00000000	          7.54076971	         16.32226663	          2.40376533	          0.25987377	          0.00000000	          0.02615319	          0.00000000	          0.00000000	          0.00000000	          0.00000000	          0.05863997	          0.00000000	
          2.08300000	         -0.00000000	         -0.00000001	          0.00000000	          0.00000000	          0.00000000	          0.00000000	          6.80427482	         14.15719854	          2.20326643	          0.24725154	          0.00000000	          0.02485303	          0.00000000	          0.00000000	          0.00000000	          0.00000000	          0.05868372	          0.00000000	
          2.08400000	         -0.00000000	         -0.00000001	          0.00000000	          0.00000000	          0.00000000	          0.00000000	          6.10468802	         12.12271679	          2.01148915	          0.23476821	          0.00000000	          0.02356951	          0.00000000	          0.00000000	          0.00000000	          0.00000000	          0.05850199	          0.00000000	
